<svg fill="#000000" xmlns="http://www.w3.org/2000/svg"  viewBox="0 0 16 16" width="96px" height="96px"><path d="M 3.0292969 2.0039062 C 2.3200765 2.0039062 1.6103782 2.2724343 1.0722656 2.8105469 L 0.90820312 2.9726562 C -0.29895698 4.1798165 -0.29895698 6.154168 0.90820312 7.3613281 C 1.2332107 7.6863357 1.6381927 7.8904934 2.0605469 7.9746094 C 2.0466859 8.0694448 2.0287913 8.1634185 2.0195312 8.2597656 C 1.776073 10.793535 3.7819773 13.001953 6.328125 13.001953 L 9.671875 13.001953 C 12.217875 13.001953 14.2239 10.794386 13.980469 8.2597656 C 13.971084 8.1621257 13.953562 8.0667897 13.939453 7.9707031 C 14.361545 7.8864596 14.766509 7.6866161 15.091797 7.3613281 C 16.298957 6.154168 16.298957 4.1798164 15.091797 2.9726562 L 14.927734 2.8105469 C 14.389622 2.2724343 13.681877 2.0039062 12.972656 2.0039062 C 12.263436 2.0039062 11.553738 2.2724343 11.015625 2.8105469 L 10.779297 3.046875 C 10.649179 3.1762615 10.542879 3.3200292 10.451172 3.4707031 C 9.7521101 3.1737986 8.9909066 3 8.1894531 3 L 7.8105469 3 C 7.0097097 3 6.24941 3.1742316 5.5507812 3.4707031 C 5.4591821 3.3196234 5.3520113 3.1762301 5.2226562 3.046875 L 4.9863281 2.8105469 C 4.4482156 2.2724343 3.7385173 2.0039062 3.0292969 2.0039062 z M 3.0292969 2.9980469 C 3.4808531 2.9980469 3.9324094 3.1706907 4.2792969 3.5175781 L 4.515625 3.7539062 C 4.5725023 3.8107836 4.6171461 3.8740838 4.6601562 3.9375 C 3.5645505 4.6464422 2.7200649 5.7108947 2.296875 6.9804688 C 2.048825 6.939685 1.8080773 6.8471398 1.6152344 6.6542969 C 0.79085584 5.8299184 0.79177809 4.5065761 1.6152344 3.6816406 L 1.6152344 3.6796875 L 1.7792969 3.5175781 C 2.1261843 3.1706907 2.5777406 2.9980469 3.0292969 2.9980469 z M 12.970703 2.9980469 C 13.421771 2.9980469 13.873816 3.1706907 14.220703 3.5175781 L 14.384766 3.6796875 C 15.209606 4.5045274 15.209606 5.829457 14.384766 6.6542969 C 14.191517 6.8475456 13.95291 6.9451176 13.705078 6.9863281 C 13.282249 5.7132852 12.436303 4.645574 11.337891 3.9355469 C 11.381018 3.8726191 11.42807 3.8118478 11.484375 3.7558594 L 11.722656 3.5175781 C 12.069544 3.1706907 12.519635 2.9980469 12.970703 2.9980469 z M 7.8105469 4 L 8.1894531 4 C 10.675198 4 12.746613 5.8816514 12.984375 8.3554688 C 13.172943 10.318849 11.643875 12.001953 9.671875 12.001953 L 6.328125 12.001953 C 4.3562727 12.001953 2.8270833 10.317699 3.015625 8.3554688 C 3.2533873 5.8816513 5.3248023 4 7.8105469 4 z M 8 7.5 C 7.448 7.5 7 8.5455 7 9.0625 C 7 9.5795 7.448 10 8 10 C 8.552 10 9 9.5795 9 9.0625 C 9 8.5445 8.552 7.5 8 7.5 z M 6.1933594 8.2363281 A 0.50005 0.50005 0 0 0 6.109375 8.2421875 L 5.0390625 8.4023438 A 0.50005 0.50005 0 1 0 5.1875 9.390625 L 6.2558594 9.2324219 A 0.50005 0.50005 0 0 0 6.1933594 8.2363281 z M 9.7910156 8.2363281 A 0.50005 0.50005 0 0 0 9.7441406 9.2324219 L 10.8125 9.390625 A 0.50005 0.50005 0 1 0 10.960938 8.4023438 L 9.890625 8.2421875 A 0.50005 0.50005 0 0 0 9.7910156 8.2363281 z M 8.8222656 10.242188 A 0.50005 0.50005 0 0 0 8.5136719 10.34375 C 8.3625445 10.444722 8.1901982 10.5 8 10.5 C 7.8062548 10.5 7.6307087 10.440915 7.4765625 10.335938 A 0.50005 0.50005 0 0 0 7.1953125 10.246094 A 0.50005 0.50005 0 0 0 6.9140625 11.164062 C 7.2239163 11.375084 7.5997452 11.5 8 11.5 C 8.3918018 11.5 8.7614868 11.378857 9.0683594 11.173828 A 0.50005 0.50005 0 0 0 8.8222656 10.242188 z"/></svg>