<svg fill="#000000" xmlns="http://www.w3.org/2000/svg"  viewBox="0 0 48 48" width="48px" height="48px"><path d="M 11.306641 8.9863281 C 10.348282 8.9416458 9.4160118 9.0686756 8.5683594 9.3144531 C 6.3079529 9.96986 4.5399696 11.282369 3.5195312 12.580078 C 0.37613937 16.574475 0.02107062 22.189359 3.6679688 25.638672 C 4.7791758 26.689561 5.9465447 27.502341 7.1972656 27.855469 C 7.1575744 28.140444 7.1064436 28.42151 7.0800781 28.710938 C 6.3962483 36.208402 12.082301 42.248309 19.189453 42.818359 C 21.641812 43.015061 26.273911 43.026206 28.855469 42.818359 C 35.962006 42.246119 41.647542 36.210245 40.964844 28.712891 A 1.50015 1.50015 0 0 0 40.964844 28.710938 C 40.953227 28.583432 40.928284 28.460644 40.914062 28.333984 C 42.164747 27.968084 43.345193 27.149531 44.443359 26.0625 C 48.018897 22.525512 47.660983 16.856402 44.585938 12.769531 C 43.590519 11.445779 41.854335 10.093917 39.619141 9.4160156 C 38.501544 9.0770649 37.229308 8.9581922 35.947266 9.1875 C 34.665223 9.4168078 33.373402 9.9945195 32.220703 11.048828 A 1.50015 1.50015 0 0 0 32.208984 11.060547 C 32.208984 11.060547 30.941994 12.22207 29.958984 14.021484 C 28.262498 13.40095 26.449838 13.046875 24.558594 13.046875 L 23.486328 13.046875 C 21.717168 13.046875 20.015861 13.356219 18.414062 13.902344 C 17.399503 12.078954 16.056641 10.910156 16.056641 10.910156 A 1.50015 1.50015 0 0 0 16.042969 10.898438 C 14.868076 9.8714621 13.563906 9.3106306 12.271484 9.0898438 C 11.948379 9.034647 11.626094 9.0012222 11.306641 8.9863281 z M 11.152344 11.943359 C 12.121873 11.967409 13.089771 12.305941 14.0625 13.154297 C 14.074451 13.165507 14.966311 14.010004 15.660156 15.144531 C 15.258991 15.373084 14.866769 15.615268 14.486328 15.876953 C 13.715372 14.786829 12.562856 14.143367 11.371094 14.017578 C 9.9245469 13.864897 8.4319126 14.39665 7.3203125 15.494141 A 1.0001 1.0001 0 1 0 8.7246094 16.917969 C 9.4250093 16.226459 10.351406 15.920291 11.162109 16.005859 C 11.860256 16.079549 12.462065 16.419054 12.902344 17.121094 C 10.614677 19.142201 8.8564272 21.801589 7.8789062 24.851562 C 7.2977843 24.617353 6.4818299 24.169561 5.7304688 23.458984 C 3.3233668 21.182297 3.4723451 17.49115 5.8769531 14.435547 A 1.50015 1.50015 0 0 0 5.8789062 14.433594 C 6.389468 13.784303 7.8459534 12.649109 9.4042969 12.197266 C 9.9879897 12.028023 10.570626 11.928929 11.152344 11.943359 z M 37.066406 12.027344 C 37.625493 12.014328 38.184975 12.115746 38.75 12.287109 C 40.258806 12.744708 41.68392 13.90197 42.189453 14.574219 C 44.554408 17.717348 44.694446 21.594674 42.333984 23.929688 A 1.50015 1.50015 0 0 0 42.332031 23.929688 C 41.671974 24.583052 40.895118 25.018873 40.304688 25.277344 C 39.407682 22.214802 37.730739 19.521613 35.517578 17.447266 C 35.86264 16.815619 36.324963 16.38109 36.828125 16.175781 C 37.422494 15.933258 38.09443 15.939123 38.925781 16.402344 A 1.0006914 1.0006914 0 1 0 39.900391 14.654297 C 39.262566 14.298907 38.595644 14.097656 37.943359 14.044922 C 37.291075 13.992192 36.652456 14.087482 36.072266 14.324219 C 35.198147 14.68089 34.472844 15.328434 33.945312 16.15625 C 33.535043 15.856244 33.111785 15.576942 32.675781 15.316406 C 33.361893 14.137353 34.241625 13.2679 34.251953 13.257812 C 35.204047 12.389224 36.134596 12.049037 37.066406 12.027344 z M 23.486328 16.046875 L 24.558594 16.046875 C 31.475676 16.046875 37.304885 21.590847 37.978516 28.984375 C 38.513817 34.863021 34.200697 39.378366 28.615234 39.828125 C 26.352792 40.010279 21.565329 39.999423 19.429688 39.828125 C 13.844839 39.380176 9.5302363 34.86291 10.066406 28.984375 C 10.739115 21.590963 16.569245 16.046875 23.486328 16.046875 z M 23.869141 23.048828 C 23.139697 23.048828 22.531938 23.409181 22.074219 23.841797 C 21.616499 24.274413 21.263018 24.803943 20.96875 25.369141 C 20.380213 26.499536 20.021484 27.738238 20.021484 28.794922 C 20.021484 30.907634 21.755772 32.640625 23.869141 32.640625 C 25.981429 32.640625 27.716797 30.908291 27.716797 28.794922 C 27.716797 27.738238 27.3579 26.499488 26.769531 25.369141 C 26.475347 24.803967 26.123551 24.274417 25.666016 23.841797 C 25.20848 23.409176 24.598549 23.048828 23.869141 23.048828 z M 23.869141 25.048828 C 23.925731 25.048828 24.067364 25.083448 24.291016 25.294922 C 24.514668 25.506395 24.775028 25.868267 24.996094 26.292969 C 25.438225 27.142372 25.716797 28.278606 25.716797 28.794922 C 25.716797 29.827553 24.900852 30.640625 23.869141 30.640625 C 22.836509 30.640625 22.021484 29.826209 22.021484 28.794922 C 22.021484 28.278606 22.299973 27.142323 22.742188 26.292969 C 22.963293 25.868292 23.22547 25.5064 23.449219 25.294922 C 23.672968 25.083444 23.812085 25.048828 23.869141 25.048828 z M 17.976562 26.044922 A 1.0001 1.0001 0 0 0 17.806641 26.058594 L 14.875 26.494141 A 1.0001876 1.0001876 0 1 0 15.169922 28.472656 L 18.101562 28.037109 A 1.0001 1.0001 0 0 0 17.976562 26.044922 z M 29.970703 26.046875 A 1.0001 1.0001 0 0 0 29.875 28.037109 L 32.806641 28.472656 A 1.0001875 1.0001875 0 1 0 33.101562 26.494141 L 30.169922 26.058594 A 1.0001 1.0001 0 0 0 29.970703 26.046875 z M 21.966797 34.353516 A 1.0001 1.0001 0 0 0 21.423828 36.164062 C 22.16018 36.713788 23.067665 37.048828 24.039062 37.048828 C 24.990067 37.048828 25.882951 36.727588 26.611328 36.195312 A 1.0001 1.0001 0 1 0 25.431641 34.580078 C 25.016018 34.883802 24.548058 35.048828 24.039062 35.048828 C 23.520461 35.048828 23.044742 34.876822 22.621094 34.560547 A 1.0001 1.0001 0 0 0 21.966797 34.353516 z"/></svg>